<svg width="26" height="26" viewBox="0 0 26 26" fill="none" xmlns="http://www.w3.org/2000/svg">
<path d="M2.54992 14.89H3.54016V12.7028H2.54992V14.89ZM7.69696 25.1405C9.05718 25.1405 9.68831 23.8892 8.94836 22.5616L4.87861 15.3688C4.5304 14.7703 4.00807 14.4983 3.35517 14.4983C2.33229 14.4983 1.77732 15.26 1.86438 16.2719C2.08201 17.5669 2.95255 19.6344 4.00807 21.332C5.67297 24.1503 6.64144 25.1405 7.69696 25.1405ZM23.5625 14.89V12.7028H22.5723V14.89H23.5625ZM18.4154 25.1405C19.4709 25.1405 20.4394 24.1503 22.1044 21.332C23.149 19.6344 24.0304 17.5669 24.2481 16.2719C24.3351 15.26 23.7802 14.4983 22.7572 14.4983C22.1044 14.4983 21.582 14.7703 21.2338 15.3688L17.1641 22.5616C16.4132 23.8892 17.0553 25.1405 18.4154 25.1405ZM2.17995 12.5178C2.17995 13.0292 2.5064 13.3448 3.01784 13.3448C3.52927 13.3448 3.83397 13.0292 3.83397 12.5178C3.88837 6.65255 7.3814 2.93101 13.0508 2.93101C18.731 2.93101 22.2132 6.65255 22.2675 12.5178C22.2675 13.0292 22.5831 13.3448 23.0946 13.3448C23.606 13.3448 23.9216 13.0292 23.9216 12.5178C23.9216 5.84731 19.8191 1.26611 13.0508 1.26611C6.28235 1.26611 2.17995 5.84731 2.17995 12.5178Z" fill="#262626"/>
<path d="M10.9517 22.9859C11.6481 22.5833 11.8331 21.6801 11.387 20.9075L7.71983 14.4329C7.27368 13.6603 6.40314 13.3773 5.71759 13.78C5.29321 14.0085 5.19527 14.4111 5.41291 14.792L9.91793 22.7138C10.1464 23.1056 10.5382 23.2144 10.9517 22.9859ZM15.1629 22.9859C15.5764 23.2144 15.9682 23.1056 16.1858 22.7138L20.6908 14.792C20.9193 14.4111 20.8214 14.0085 20.397 13.78C19.7006 13.3773 18.8409 13.6603 18.3839 14.4329L14.7167 20.9075C14.2706 21.6801 14.4665 22.5833 15.1629 22.9859ZM6.69695 6.71778C8.48154 5.74931 10.5708 5.27051 13.0519 5.27051C15.5438 5.27051 17.6331 5.74931 19.4068 6.71778C17.9813 4.88964 15.9464 3.97559 13.0519 3.97559C10.1682 3.97559 8.13333 4.88964 6.69695 6.71778Z" fill="#262626"/>
</svg>
