<svg width="26" height="26" viewBox="0 0 26 26" fill="none" xmlns="http://www.w3.org/2000/svg">
<path d="M12.6161 23.8272C12.7902 23.8272 13.0622 23.7618 13.3343 23.6204C19.5259 20.3776 21.5173 18.7563 21.5173 14.8498V6.64495C21.5173 5.52414 21.0385 5.16504 20.1245 4.78418C18.8513 4.26185 14.7816 2.78195 13.5193 2.34668C13.2255 2.24874 12.9208 2.19434 12.6161 2.19434C12.3114 2.19434 12.0067 2.25963 11.7238 2.34668C10.4506 2.76018 6.38086 4.27274 5.1077 4.78418C4.20452 5.15416 3.71484 5.52414 3.71484 6.64495V14.8498C3.71484 18.7563 5.81501 20.1927 11.8979 23.6204C12.1808 23.7728 12.442 23.8272 12.6161 23.8272ZM7.70843 13.3698C7.70843 13.2392 7.77371 13.076 7.89342 12.9346L14.0416 5.21944C14.5095 4.63183 15.293 5.02358 15.0101 5.75265L12.9861 11.1935H16.7837C17.0775 11.1935 17.2952 11.4002 17.2952 11.6941C17.2952 11.8247 17.2299 11.9879 17.1102 12.1293L10.9621 19.8445C10.4941 20.4321 9.72154 20.0403 9.99358 19.3221L12.0285 13.8704H8.21986C7.93695 13.8704 7.70843 13.6636 7.70843 13.3698Z" fill="#262626"/>
</svg>
