<svg width="26" height="26" viewBox="0 0 26 26" fill="none" xmlns="http://www.w3.org/2000/svg">
<path d="M12.5997 18.4122H13.5004C18.5043 18.4122 21.8768 15.0336 21.8768 9.79012V7.75491C21.8768 5.36879 18.3141 3.74463 13.05 3.74463C7.786 3.74463 4.22325 5.36879 4.22325 7.75491V9.79012C4.22325 14.8531 7.58584 18.4122 12.5997 18.4122ZM13.05 10.2012C8.86681 10.2012 5.78445 9.13845 5.78445 7.75491C5.78445 6.38139 8.86681 5.30864 13.05 5.30864C17.2433 5.30864 20.3257 6.38139 20.3257 7.75491C20.3257 9.13845 17.2433 10.2012 13.05 10.2012ZM20.796 13.9809H21.5866C23.8183 13.9809 25.1593 12.8079 25.1593 10.8629C25.1593 8.92791 23.8083 7.74488 21.5866 7.74488H20.9461V9.29886H21.5866C22.8576 9.29886 23.5982 9.88035 23.5982 10.8629C23.5982 11.8354 22.8576 12.4269 21.5866 12.4269H20.796V13.9809ZM13 23.2146C20.6059 23.2146 26 21.049 26 17.9009C26 16.6777 25.1694 15.605 23.7082 14.7428C23.1078 14.9935 22.4473 15.1339 21.6967 15.1539C20.1055 17.931 17.1932 19.5852 13.5004 19.5852H12.5997C8.48653 19.5852 5.27406 17.3996 3.84296 13.9809C1.41108 14.9233 0 16.2868 0 17.9009C0 21.049 5.40416 23.2146 13 23.2146Z" fill="#1C1C1E"/>
</svg>
