<svg width="26" height="26" viewBox="0 0 26 26" fill="none" xmlns="http://www.w3.org/2000/svg">
<path d="M17.1135 19.56L9.29559 6.25337C8.96805 5.69445 8.50945 5.52964 7.98532 5.5798C7.55585 5.62996 6.98811 5.8521 6.46397 6.15305C4.64419 7.19208 3.95266 8.79002 2.18381 9.79322C1.41222 10.2303 0.742528 10.3951 0.422243 10.5743C0.0437239 10.7892 -0.123698 11.1475 0.101958 11.5416L3.0282 16.5361C3.35576 17.0951 3.82163 17.2527 4.33846 17.2025C4.76793 17.1524 5.34299 16.9302 5.85981 16.6221C7.68691 15.5831 8.37112 13.9923 10.14 12.9819C10.7296 12.6523 11.2683 12.4732 11.6104 12.3442L16.1599 20.1046C16.3128 20.3697 16.6403 20.4557 16.9096 20.3053C17.1644 20.1548 17.259 19.818 17.1135 19.56ZM13.503 11.7065L14.1363 12.7813L14.391 12.3442C14.7332 12.4732 15.2646 12.6523 15.8614 12.9819C17.623 13.9923 18.3146 15.5831 20.1343 16.6221C20.6585 16.9302 21.2263 17.1524 21.6557 17.2025C22.1798 17.2527 22.6384 17.0951 22.9659 16.5361L25.8995 11.5416C26.1252 11.1475 25.9504 10.7892 25.5792 10.5743C25.2589 10.3951 24.582 10.2303 23.8104 9.79322C22.0415 8.79002 21.3573 7.19208 19.5375 6.15305C19.0134 5.8521 18.4383 5.62996 18.0161 5.5798C17.492 5.52964 17.0334 5.69445 16.7058 6.25337L13.503 11.7065ZM12.4985 15.5759L11.8579 14.4939L8.88799 19.56C8.73512 19.818 8.83699 20.1548 9.09179 20.3053C9.36112 20.4557 9.68866 20.3697 9.83426 20.1046L12.4985 15.5759Z" fill="#262626"/>
</svg>
