<svg width="26" height="27" viewBox="0 0 26 27" fill="none" xmlns="http://www.w3.org/2000/svg">
<path d="M4.64453 16.3771C4.64453 17.302 5.26479 17.9114 6.24414 17.9114H12.1311V22.9931C12.1311 24.6581 12.8276 26.0401 13.0996 26.0401C13.3608 26.0401 14.0572 24.6581 14.0572 22.9931V17.9114H19.9442C20.9235 17.9114 21.5438 17.302 21.5438 16.3771C21.5438 14.0811 19.7048 11.6545 16.6471 10.5445L16.288 5.5498C17.8767 4.64663 19.1824 3.62374 19.7483 2.89467C20.0312 2.52469 20.1728 2.15471 20.1728 1.82826C20.1728 1.16448 19.6613 0.674805 18.8996 0.674805H7.29967C6.52706 0.674805 6.02651 1.16448 6.02651 1.82826C6.02651 2.15471 6.15709 2.52469 6.44001 2.89467C7.00586 3.62374 8.31166 4.64663 9.90039 5.5498L9.5413 10.5445C6.48354 11.6545 4.64453 14.0811 4.64453 16.3771Z" fill="#1C1C1E"/>
</svg>
