<svg width="26" height="26" viewBox="0 0 26 26" fill="none" xmlns="http://www.w3.org/2000/svg">
<g clip-path="url(#clip0_149_747)">
<path d="M0 10.6356C0 11.6694 0.631139 12.3006 1.6649 12.3006H23.8091C24.8429 12.3006 25.4849 11.6694 25.4849 10.6356V10.1024C25.4849 9.07955 24.8429 8.42666 23.8091 8.42666H1.6649C0.631139 8.42666 0 9.07955 0 10.1024V10.6356ZM6.92075 24.2487H18.5642C21.0778 24.2487 21.8614 22.7796 22.1769 21.2017L23.6894 13.7913H1.80636L3.30804 21.2017C3.6236 22.7796 4.40708 24.2487 6.92075 24.2487ZM7.62807 22.3769C7.21456 22.4423 6.90988 22.2247 6.84458 21.8546L5.90876 16.3812C5.84347 16.0112 6.08287 15.7174 6.49637 15.6412C6.90988 15.5868 7.22545 15.7936 7.29073 16.1635L8.21568 21.6371C8.27009 22.007 8.05246 22.3008 7.62807 22.3769ZM11.0776 22.3661C10.6641 22.3879 10.3593 22.1376 10.3376 21.7568L9.97852 16.3486C9.95679 15.9677 10.2288 15.6956 10.6314 15.663C11.0558 15.6303 11.3387 15.8915 11.3714 16.2723L11.7305 21.6805C11.7522 22.0614 11.4802 22.3444 11.0776 22.3661ZM14.4292 22.3661C14.0157 22.3444 13.7436 22.0614 13.7653 21.6805L14.1244 16.2723C14.1571 15.8915 14.44 15.6303 14.8644 15.663C15.267 15.6956 15.5391 15.9677 15.5173 16.3486L15.1582 21.7568C15.1365 22.1376 14.8318 22.3879 14.4292 22.3661ZM17.8569 22.3769C17.4324 22.3008 17.2149 22.007 17.2693 21.6371L18.1942 16.1635C18.2595 15.7936 18.575 15.5868 18.9885 15.6412C19.402 15.7174 19.6414 16.0329 19.5761 16.4029L18.6403 21.8546C18.575 22.2247 18.2595 22.4423 17.8569 22.3769ZM3.50391 8.89456H5.68025L9.51061 2.24585C9.80441 1.72353 9.56503 1.2665 9.16239 1.04886C8.77065 0.84211 8.24832 0.874755 7.95452 1.36443L3.50391 8.89456ZM19.8047 8.89456H21.981L17.5304 1.36443C17.2475 0.885636 16.7251 0.852991 16.3225 1.04886C15.9308 1.2665 15.6805 1.72353 15.9743 2.24585L19.8047 8.89456Z" fill="#262626"/>
</g>
<defs>
<clipPath id="clip0_149_747">
<rect width="26" height="26" fill="white"/>
</clipPath>
</defs>
</svg>
