<svg width="26" height="27" viewBox="0 0 26 27" fill="none" xmlns="http://www.w3.org/2000/svg">
<path d="M7.72505 25.7408H18.2783C20.3353 25.7408 21.3588 24.6759 21.3588 22.5254V6.99094C21.3588 4.84049 20.3353 3.7755 18.3777 3.7755H18.1492C18.1492 3.81646 18.1492 3.86766 18.1492 3.90863V5.11698C18.1492 6.40725 17.3045 7.31863 16.0723 7.31863H9.93111C8.6989 7.31863 7.85424 6.40725 7.85424 5.11698V3.90863C7.85424 3.86766 7.85424 3.81646 7.85424 3.7755H7.62568C5.66806 3.7755 4.64453 4.84049 4.64453 6.99094V22.5254C4.64453 24.6759 5.66806 25.7408 7.72505 25.7408ZM9.93111 6.13076H16.0723C16.6486 6.13076 16.9964 5.75187 16.9964 5.11698V4.04175C16.9964 3.40685 16.6486 3.02796 16.0723 3.02796H15.158C15.0885 1.87081 14.1544 0.928711 13.0017 0.928711C11.849 0.928711 10.9149 1.87081 10.8453 3.02796H9.93111C9.35475 3.02796 9.00695 3.40685 9.00695 4.04175V5.11698C9.00695 5.75187 9.35475 6.13076 9.93111 6.13076ZM13.0017 4.00078C12.5247 4.00078 12.1372 3.59118 12.1372 3.10988C12.1372 2.60812 12.5247 2.20874 13.0017 2.20874C13.4787 2.20874 13.8662 2.60812 13.8662 3.10988C13.8662 3.59118 13.4787 4.00078 13.0017 4.00078Z" fill="#262626"/>
</svg>
