<svg width="30" height="34" viewBox="0 0 30 34" fill="none" xmlns="http://www.w3.org/2000/svg">
<path d="M10.778 32.4186H18.4496C22.819 32.4186 24.9786 30.2088 24.9409 25.7892C24.8907 20.7418 24.8656 17.0755 24.74 14.3257C24.376 6.23981 22.1033 3.86677 14.62 3.86677C7.13679 3.86677 4.85163 6.23981 4.48751 14.3257C4.36195 17.0755 4.33684 20.7418 4.28662 25.7892C4.24895 30.2088 6.40855 32.4186 10.778 32.4186ZM10.4138 27.434C9.33405 27.434 8.64348 26.7309 8.64348 25.6762V19.1974C8.64348 18.1302 9.33405 17.427 10.4138 17.427H18.8263C19.8935 17.427 20.5841 18.1302 20.5841 19.1974V25.6762C20.5841 26.7309 19.8935 27.434 18.8263 27.434H10.4138ZM8.64348 22.2611H20.5841V20.7669H8.64348V22.2611ZM14.62 0.928711C12.2093 0.928711 10.5143 2.56097 10.5143 4.78335H12.2847C12.2847 3.56543 13.2389 2.69908 14.62 2.69908C15.9886 2.69908 16.9555 3.56543 16.9555 4.78335H18.7258C18.7258 2.56097 17.0182 0.928711 14.62 0.928711Z" fill="#262626"/>
</svg>
