<svg width="560" height="436" viewBox="0 0 560 436" fill="none" xmlns="http://www.w3.org/2000/svg">
<g clip-path="url(#clip0_155_2170)">
<path d="M720.591 -30.5H-160.5V467.63H720.591V-30.5Z" fill="#1A3129"/>
<path d="M210.791 99.475L192.157 119.216L171.679 111.559L170.203 115.434L193.264 124.059L213.789 102.289L210.791 99.475ZM360.184 139.787L333.986 156.16L336.2 159.666L362.398 143.292L360.184 139.787ZM210.791 99.475L192.157 119.216L171.679 111.559L170.203 115.434L193.264 124.059L213.789 102.289L210.791 99.475ZM360.184 139.787L333.986 156.16L336.2 159.666L362.398 143.292L360.184 139.787ZM210.791 99.475L192.157 119.216L171.679 111.559L170.203 115.434L193.264 124.059L213.789 102.289L210.791 99.475ZM360.184 139.787L333.986 156.16L336.2 159.666L362.398 143.292L360.184 139.787ZM210.791 99.475L192.157 119.216L171.679 111.559L170.203 115.434L193.264 124.059L213.789 102.289L210.791 99.475ZM360.184 139.787L333.986 156.16L336.2 159.666L362.398 143.292L360.184 139.787ZM210.791 99.475L192.157 119.216L171.679 111.559L170.203 115.434L193.264 124.059L213.789 102.289L210.791 99.475ZM360.184 139.787L333.986 156.16L336.2 159.666L362.398 143.292L360.184 139.787ZM210.791 99.475L192.157 119.216L171.679 111.559L170.203 115.434L193.264 124.059L213.789 102.289L210.791 99.475ZM360.184 139.787L333.986 156.16L336.2 159.666L362.398 143.292L360.184 139.787ZM210.791 99.475L192.157 119.216L171.679 111.559L170.203 115.434L193.264 124.059L213.789 102.289L210.791 99.475ZM360.184 139.787L333.986 156.16L336.2 159.666L362.398 143.292L360.184 139.787ZM210.791 99.475L192.157 119.216L171.679 111.559L170.203 115.434L193.264 124.059L213.789 102.289L210.791 99.475ZM360.184 139.787L333.986 156.16L336.2 159.666L362.398 143.292L360.184 139.787ZM481.211 88.8667L503.765 57.9642L526.965 33.1961L529.087 35.3177V21.8037L499.061 53.8131L498.922 53.9515L479.043 81.2103L464.284 66.6354L513.451 15.9921L510.453 13.0864L458.473 66.6815L476.599 84.5773L443.621 113.174L431.168 93.0178L431.998 71.1093L425.679 58.2871L419.176 45.0497L443.713 6.21403L440.208 4.00012L414.425 44.8191L419.083 54.2744L349.161 11.5182C371.161 3.03153 391.917 -5.13227 392.147 -5.22451L390.625 -9.09886C390.395 -9.00661 366.457 0.402512 342.75 9.5349C308.803 22.5416 298.84 25.8164 295.981 26.6005L285.649 9.16591L348.423 -9.9752L347.224 -13.9418L283.481 5.52218L262.126 -30.5H258.344L257.56 -30.0388L279.976 7.73609C275.133 13.2247 257.422 33.2883 256.13 34.9949C254.793 36.7476 225.182 81.6254 220.385 88.8667C199.537 74.753 173.385 74.1073 171.909 74.0612H171.633L171.356 74.1534C169.972 74.5224 137.455 83.1936 123.388 95.6929C119.744 98.9216 111.073 99.5212 98.9426 97.3534L103.647 64.2831L130.076 -27.0869L123.111 -29.1163L96.5903 62.4843L91.7935 95.8313C71.038 90.8961 50.1443 81.0719 48.6222 78.0739C46.9618 74.2918 38.4751 59.4863 30.957 46.664V54.9201C37.322 65.8974 43.5025 76.6902 44.794 79.7343C47.2385 85.4075 72.1911 95.5084 91.1939 99.9824L90.3175 106.163C69.4237 101.274 48.2993 91.3574 46.7773 88.3132C45.2552 84.8079 37.9678 72.0779 30.957 60.0397V68.2958C36.6302 78.12 41.796 87.2063 42.949 89.9275C45.4397 95.6468 70.7152 105.84 89.7179 110.268L86.7199 131.254L98.6658 164.924L97.236 198.732L83.7219 218.75C75.6965 230.695 66.4257 244.348 57.2472 257.954L48.6683 245.547L31.0032 233.832V242.549L43.5025 250.851L52.9117 264.411C45.163 275.804 37.6449 286.919 31.0032 296.559V309.428C36.3996 301.587 43.5025 291.163 52.9117 277.28C54.6182 274.743 56.3709 272.206 58.0774 269.669L107.199 307.721L133.489 350.523C128.277 356.15 123.434 361.455 119.144 366.159C117.115 368.419 115.132 370.587 113.287 372.57L78.7867 332.766L78.6023 332.581L51.3435 314.04L40.4123 328.661L43.7331 331.152L52.312 319.713L65.1804 328.476L54.0186 337.009L56.5554 340.33L68.8241 330.967L75.8349 335.764L77.0802 337.24L57.2934 349.094L59.415 352.645L79.8476 340.422L110.473 375.753C107.245 379.212 104.708 381.795 103.463 382.81C94.0074 390.235 66.2412 406.009 65.9645 406.148L70.5768 414.266C71.7299 413.62 99.2654 397.984 109.228 390.143C112.134 387.883 117.669 381.749 126.063 372.524C129.707 368.511 133.95 363.853 138.562 358.872L163.607 399.645L171.817 406.102C150.739 419.062 135.887 428.379 135.241 429.256L138.562 431.746C138.47 431.838 138.424 431.931 138.378 431.977C139.808 430.778 155.028 421.322 175.322 408.823L196.631 425.612L203.089 440.463L206.917 438.803L203.55 431.054L242.708 461.865L247.228 456.145L197.415 416.987L190.405 400.844L189.805 399.967C209.039 388.16 230.67 375.015 249.073 363.807L253.916 382.533L311.294 465.185L317.29 461.034L296.119 430.501L333.433 408.5L355.941 396.923L363.09 437.927C359.584 439.357 350.729 442.908 341.873 446.69C318.074 456.929 317.797 458.452 317.52 459.927L321.625 460.665C321.533 461.081 321.348 461.311 321.348 461.311C323.286 459.143 344.041 450.057 363.828 442.124L368.256 467.584H372.499L367.841 440.925L387.581 437.327L403.955 415.465L478.213 435.113L479.274 431.1L405.938 411.683L428.308 355.32L436.241 356.75L529.179 400.798V396.185L437.533 352.737L429.876 351.354L440.761 324.003C469.311 342.406 512.806 367.404 529.225 376.721V371.924C504.365 357.719 432.459 316.208 419.545 303.708C432.736 310.904 443.575 316.346 451.554 319.39C478.444 336.271 513.451 356.381 529.225 365.421V360.624C514.881 352.414 487.945 336.871 464.33 322.434C468.251 322.803 472.309 323.265 476.23 323.726C494.126 325.801 511.007 327.785 520.831 320.958C522.768 319.621 525.674 317.315 529.179 314.409V302.186C523.229 307.306 518.202 311.411 515.481 313.302C508.562 318.099 492.65 316.254 477.291 314.455C472.402 313.902 467.328 313.302 462.439 312.933C456.443 312.472 440.853 304.769 422.958 294.991C421.851 294.069 421.021 293.238 420.375 292.547C411.796 282.861 378.818 246.331 353.542 220.041C357.094 218.565 359.861 217.55 361.476 217.227C366.872 216.213 397.313 223.362 421.759 229.081C472.909 241.119 497.769 246.331 504.965 242.411C507.317 241.165 512.667 237.891 519.816 233.509L529.133 242.318V236.599L523.506 231.249C525.305 230.142 527.196 228.989 529.133 227.744V216.72C524.567 219.58 520.278 222.209 516.495 224.561L464.469 175.209L501.782 133.56C510.822 141.585 520.185 149.888 529.133 157.867V152.286C520.6 144.722 512.16 137.158 504.596 130.47L529.133 103.073V96.846L501.459 127.702C494.31 121.384 488.176 115.941 483.886 112.113L482.41 110.821L440.254 152.286L424.849 137.665L480.981 89.0051L481.211 88.8667ZM422.45 61.1467L427.801 71.9856L427.063 92.6488L400.772 117.371L417.377 136.005L401.833 149.473L401.234 149.98L393.669 156.529L393.393 156.76L393.3 157.221L389.934 175.855L388.734 176.547L346.024 106.855L339.429 89.4202L328.959 82.1789L316.874 61.7924L379.095 34.5798L422.45 61.1467ZM341.32 225.668C355.157 239.782 373.006 259.015 387.904 275.296C385.091 273.682 382.323 272.068 379.648 270.546C348.423 252.466 328.913 241.35 321.81 240.058C319.411 239.643 316.505 239.597 313.185 239.92C323.286 234.616 333.11 229.588 341.32 225.668ZM272.873 261.829L288.14 269.854L326.422 276.772L330.25 282.999L247.321 273.313C256.223 268.978 264.801 265.149 272.873 261.829ZM338.875 205.282C332.556 199.055 327.575 194.489 324.854 192.736C315.768 186.74 289.708 165.201 267.477 142.646L346.716 116.079L385.091 178.668L338.875 205.282ZM322.594 196.149C326.007 198.409 333.34 205.42 342.519 214.737C341.181 215.383 339.752 216.028 338.322 216.72C331.403 209.848 325.915 204.82 323.055 202.883C313 196.241 282.144 170.597 258.667 145.506L263.141 143.984C285.972 167.414 313.185 189.969 322.594 196.149ZM185.792 215.014L188.652 224.008L224.259 274.512C220.938 276.265 217.71 278.018 214.481 279.817C211.022 281.708 207.516 283.922 203.965 286.274C199.768 279.355 185.654 254.172 169.834 225.806L185.792 215.014ZM270.705 252.235C269.737 252.788 268.953 253.203 268.399 253.526C260.558 256.801 252.44 260.445 244.277 264.411L231.869 245.778L251.287 227.559L270.705 252.235ZM254.331 224.746L255.162 223.961L255.3 223.823L288.555 180.144C302.576 192.644 315.03 202.606 320.795 206.388C323.378 208.095 328.221 212.523 334.401 218.657C313.646 228.758 286.848 243.333 274.441 250.205L254.331 224.746ZM229.517 242.272L224.72 235.077L244.599 219.072L248.704 224.284L229.517 242.272ZM222.645 231.387L207.701 200.208L222.045 190.522L241.97 215.798L222.645 231.387ZM220.108 235.677L240.495 266.164C237.22 267.778 233.991 269.393 230.763 271.053L195.248 220.687L192.065 210.724L204.242 202.514L220.108 235.677ZM285.372 177.377L252.118 221.056L251.702 221.471L212.406 171.658L254.562 147.259C264.202 157.59 275.133 168.106 285.372 177.377ZM219.462 187.294L205.902 196.426L188.375 159.896L193.633 154.5L219.462 187.294ZM183.348 159.066L202.397 198.778L190.728 206.665L189.113 201.546L156.504 161.926C159.272 160.311 159.41 159.527 159.502 158.928C159.871 156.991 161.624 142.277 161.947 139.602L183.948 142.277L191.004 151.225L183.348 159.066ZM155.536 157.729C155.213 157.959 154.613 158.328 153.875 158.697L135.518 136.374L157.888 139.095C157.288 143.892 155.951 154.915 155.536 157.729ZM182.61 205.097L184.455 210.909L167.804 222.117C157.934 204.359 147.556 185.633 138.655 169.49C143.359 167.783 146.957 166.354 149.77 165.154L182.61 205.097ZM131.828 251.451L132.336 251.128L134.919 249.375L166.421 228.113C166.651 228.528 166.882 228.943 167.113 229.404C189.99 270.5 197.738 284.014 200.552 288.58C193.956 293.238 187.268 298.543 180.627 304.262L132.843 252.558L131.828 251.451ZM219.001 287.98C222.045 286.274 225.089 284.659 228.133 283.045L241.832 335.948L203.965 334.011L203.365 334.519C203.273 334.611 193.633 342.406 184.224 350.247C178.689 354.859 174.308 358.595 171.171 361.362C169.419 362.93 168.081 364.13 167.113 365.052L153.091 343.513C173.339 322.619 197.784 299.742 219.001 287.98ZM299.855 29.6446C302.438 28.8144 306.22 27.5229 311.017 25.7702C319.088 22.8645 330.25 18.6673 344.179 13.317H344.225L374.713 31.9507L314.707 58.1948L298.102 30.1981C298.656 30.0136 299.209 29.8291 299.855 29.6446ZM259.451 37.4855C260.374 36.2402 272.919 21.9881 282.19 11.5182L307.65 54.4588L284.45 72.3085L276.84 49.4314L256.776 41.406C258.298 39.146 259.221 37.7161 259.451 37.4855ZM254.424 44.9113L273.519 52.5217L282.328 79.0886L309.771 58.0103L313 63.4529L325.592 84.6695L325.822 85.0846L336.016 92.1415L342.288 108.746L344.548 112.436L264.294 139.325C253.317 127.933 243.585 116.494 237.681 106.762C233.899 100.49 229.056 95.4623 223.752 91.3574C231.131 80.0572 246.49 56.9034 254.424 44.9113ZM98.343 101.458C112.042 103.903 121.405 103.027 126.155 98.7832C138.793 87.5753 168.865 79.1347 172.14 78.2584C175.922 78.3968 216.972 80.6107 234.129 108.884C239.941 118.432 249.35 129.593 259.958 140.755L255.577 142.231C247.459 133.329 240.448 124.612 235.836 116.956C216.741 85.4997 172.002 84.3466 170.111 84.3466H169.834L169.557 84.4389C168.173 84.8079 135.657 93.479 121.589 105.932C117.945 109.161 109.459 109.76 97.5127 107.685L98.343 101.458ZM112.687 302.878L62.1363 263.72C76.9418 241.903 89.5795 223.085 89.764 222.901L104.431 201.177L106.046 163.909L94.238 130.562L96.9131 111.744C110.381 114.096 119.606 113.174 124.31 109.023C136.948 97.8146 167.02 89.3741 170.295 88.4977C174.077 88.6361 215.127 90.85 232.285 119.123C236.897 126.688 243.769 135.313 251.749 144.122L209.869 168.337L186.254 138.357L131.736 131.715L130.721 130.47L115.086 127.656L113.794 134.805L126.801 137.158L147.049 161.741C143.359 163.263 139.07 164.924 135.057 166.4L132.751 167.23L133.95 169.352C134.088 169.628 148.894 196.38 164.484 224.423L131.736 246.516L129.153 248.268L125.602 250.667L177.629 306.937C163.746 319.113 150.37 332.628 138.608 345.081L112.687 302.878ZM169.096 394.755L143.682 353.383C145.758 351.169 147.925 348.909 150.139 346.603L183.994 398.676C182.103 399.829 180.258 400.982 178.413 402.089L169.096 394.755ZM190.497 411.59L181.872 404.81C183.302 403.934 184.732 403.058 186.208 402.135L186.669 402.827L190.497 411.59ZM187.545 396.462L169.419 368.604C173.478 364.406 192.757 348.402 205.349 338.208L242.939 340.1L248.013 359.563C227.765 371.878 206.271 384.977 187.545 396.462ZM234.729 279.586C236.62 278.617 238.511 277.649 240.402 276.726L249.166 277.741L279.053 310.488C277.439 321.604 275.502 333.688 274.626 337.609L249.489 336.317L234.729 279.586ZM260.65 379.443L250.549 340.515L326.145 344.343L321.763 366.067L325.038 381.61L291.968 370.771L262.495 382.072L260.65 379.443ZM293.674 427.088L264.894 385.669L292.014 375.245L325.961 386.361L330.02 405.687L293.674 427.088ZM333.848 403.611L326.514 368.696L351.697 373.262L355.064 392.68L333.848 403.611ZM326.33 364.406L330.342 344.573L355.111 345.819C354.326 348.263 353.588 351.907 352.85 357.396C352.251 361.916 351.836 366.39 351.651 368.973L326.33 364.406ZM355.71 370.08C356.402 360.486 357.878 350.062 359.354 346.049L366.503 346.418L361.798 372.478L355.71 370.08ZM372.314 376.629L365.719 374.046L370.654 346.649L383.384 347.295L385.413 347.664L372.314 376.629ZM389.611 348.402L398.881 350.062L382.185 380.503L376.189 378.151L389.611 348.402ZM385.183 433.591L367.103 436.866L360.046 396.324L377.803 399.091L400.127 413.712L385.183 433.591ZM402.064 410.022L379.279 395.124L359.262 391.988L356.264 374.738L384.076 385.715L403.217 350.846L424.065 354.628L402.064 410.022ZM425.633 350.662L384.03 343.144L358.893 341.852L358.431 340.745C357.97 340.93 357.509 341.206 357.048 341.76L327.298 340.238L326.975 340.192V340.238L314.245 339.592L318.996 311.319L314.891 310.627L310.048 339.408L278.823 337.839C279.745 333.919 280.991 326.032 283.297 310.119L283.435 309.151L255.438 278.479L333.433 287.611L404.186 334.15L430.199 339.131L425.633 350.662ZM437.117 321.742L431.767 335.21L405.8 330.183L335.739 284.06L328.959 272.99L289.477 265.841L277.9 259.753C297.503 252.004 313.046 247.945 320.149 249.237C326.007 250.298 352.02 265.334 374.99 278.617C387.028 285.582 398.143 291.993 408.198 297.62C411.335 301.125 413.825 303.893 415.347 305.599C418.299 308.92 426.417 314.732 437.117 321.742ZM411.012 288.442C407.276 286.32 403.494 284.198 399.758 282.077C383.891 264.642 361.983 240.842 345.286 223.777C346.716 223.085 348.1 222.485 349.437 221.886C370.562 243.794 397.728 273.682 411.012 288.442ZM482.549 116.633C487.668 121.153 493.111 125.95 498.646 130.931L461.378 172.488L443.252 155.284L482.549 116.633ZM512.806 226.959C506.994 230.557 502.612 233.14 500.583 234.247C499.614 234.616 494.818 235.308 473.555 231.157C459.995 228.528 443.483 224.653 427.247 220.871L431.998 194.489L427.893 193.751L423.142 219.949C388.319 211.785 366.641 206.85 359.677 208.187C357.048 208.695 352.712 210.309 347.224 212.707C346.993 212.8 346.762 212.892 346.532 213.03C345.471 211.969 344.456 210.909 343.441 209.894L344.548 209.248L395.514 179.868L399.112 160.081L421.666 140.525L512.806 226.959ZM420.467 133.283L406.538 117.648L428.677 96.846L440.484 115.941L420.467 133.283ZM336.2 159.666L362.398 143.292L360.184 139.787L333.986 156.16L336.2 159.666ZM213.789 102.335L210.745 99.475L192.111 119.216L171.679 111.559L170.203 115.434L193.264 124.059L213.789 102.335ZM360.184 139.787L333.986 156.16L336.2 159.666L362.398 143.292L360.184 139.787ZM210.791 99.475L192.157 119.216L171.679 111.559L170.203 115.434L193.264 124.059L213.789 102.289L210.791 99.475ZM360.184 139.787L333.986 156.16L336.2 159.666L362.398 143.292L360.184 139.787ZM210.791 99.475L192.157 119.216L171.679 111.559L170.203 115.434L193.264 124.059L213.789 102.289L210.791 99.475ZM360.184 139.787L333.986 156.16L336.2 159.666L362.398 143.292L360.184 139.787ZM210.791 99.475L192.157 119.216L171.679 111.559L170.203 115.434L193.264 124.059L213.789 102.289L210.791 99.475ZM360.184 139.787L333.986 156.16L336.2 159.666L362.398 143.292L360.184 139.787ZM210.791 99.475L192.157 119.216L171.679 111.559L170.203 115.434L193.264 124.059L213.789 102.289L210.791 99.475ZM360.184 139.787L333.986 156.16L336.2 159.666L362.398 143.292L360.184 139.787ZM210.791 99.475L192.157 119.216L171.679 111.559L170.203 115.434L193.264 124.059L213.789 102.289L210.791 99.475ZM360.184 139.787L333.986 156.16L336.2 159.666L362.398 143.292L360.184 139.787ZM210.791 99.475L192.157 119.216L171.679 111.559L170.203 115.434L193.264 124.059L213.789 102.289L210.791 99.475Z" fill="#234338"/>
<path d="M397.545 159.02L394.362 177.423L342.889 206.942L350.638 217.043L231.502 278.571L190.544 221.886L187.316 213.491L132.706 251.681L130.953 249.144L188.792 208.741L193.265 220.41L232.424 274.604L345.933 215.982L338.277 206.019L391.549 175.486L394.501 158.466L397.545 159.02Z" fill="#468671"/>
<path d="M397.174 156.437C399.085 156.437 400.633 154.888 400.633 152.978C400.633 151.067 399.085 149.519 397.174 149.519C395.264 149.519 393.715 151.067 393.715 152.978C393.715 154.888 395.264 156.437 397.174 156.437Z" fill="#CBEA7B"/>
<path d="M402.526 150.81C402.341 150.349 402.111 149.887 401.788 149.472C401.65 149.288 401.465 149.057 401.281 148.873C399.021 146.613 395.377 146.613 393.117 148.873C390.857 151.133 390.857 154.777 393.117 157.037C393.163 157.083 393.255 157.175 393.301 157.221C395.561 159.297 399.113 159.25 401.281 157.037C402.388 155.883 402.987 154.408 402.987 152.932C402.941 152.24 402.849 151.502 402.526 150.81ZM400.727 156.529C398.79 158.466 395.608 158.466 393.67 156.529C392.702 155.561 392.194 154.269 392.194 152.978C392.194 151.686 392.702 150.395 393.67 149.426C395.608 147.489 398.79 147.489 400.773 149.426C400.958 149.611 401.096 149.795 401.235 149.98C402.664 151.963 402.526 154.73 400.727 156.529Z" fill="#CBEA7B"/>
<path d="M131.045 208.464C123.573 208.464 117.531 214.506 117.531 221.978C117.531 229.45 131.045 243.425 131.045 243.517C131.045 243.425 144.559 229.45 144.559 221.978C144.606 214.506 138.517 208.464 131.045 208.464ZM131.138 227.513C127.955 227.513 125.372 224.93 125.372 221.747C125.372 218.565 127.955 215.982 131.138 215.982C134.32 215.982 136.903 218.565 136.903 221.747C136.903 224.93 134.366 227.513 131.138 227.513Z" fill="#CBEA7B"/>
<path d="M131.829 246.562C133.535 246.562 134.919 247.945 134.919 249.652C134.919 251.358 133.535 252.742 131.829 252.742C130.122 252.742 128.738 251.358 128.738 249.652C128.738 247.945 130.122 246.562 131.829 246.562Z" fill="#CBEA7B"/>
<path d="M676.497 18.1599C695.73 31.2128 712.289 42.3746 712.473 42.5129L720.545 47.9555V40.2068L716.025 37.1627C705.509 30.0597 693.424 21.8959 681.478 13.8243L692.41 6.26015L716.855 -30.5H709.152L687.843 1.69396L675.851 9.99613C647.993 -8.96049 622.21 -26.5795 619.858 -28.6551C619.95 -28.5628 620.089 -28.3783 620.273 -28.1016L614.784 -24.8269C615.338 -23.8583 615.799 -23.1203 664.505 9.99613C666.765 11.5182 668.979 13.0403 671.193 14.5623L637.615 57.8258L599.887 80.9797C594.905 76.3673 590.247 72.124 586.096 68.3419C584.112 66.5431 582.221 64.7904 580.469 63.1761L615.568 32.7348L615.753 32.5965L632.081 8.56631L619.212 -1.07343L616.998 1.87845L627.099 9.44265L619.397 20.7889L611.879 10.9647L608.973 13.1786L617.229 23.9714L613.032 30.1519L611.74 31.2589L601.27 13.8243L598.134 15.7154L608.927 33.7034L577.794 60.6855C574.749 57.8258 572.443 55.6119 571.567 54.505C565.017 46.1567 551.134 21.7114 550.996 21.4347L543.847 25.4935C544.447 26.5082 558.191 50.769 565.11 59.5785C567.093 62.1153 572.489 67.0043 580.607 74.4302C584.159 77.6588 588.264 81.3948 592.645 85.4536L556.715 107.547L550.996 114.788C539.557 96.2464 531.348 83.1013 530.564 82.5478L528.35 85.4997C528.257 85.4536 528.211 85.4075 528.165 85.3614C529.318 86.8373 537.62 100.121 548.552 117.878L533.746 136.65L520.647 142.323L522.123 145.69L528.949 142.739L501.783 177.239L506.81 181.205L541.356 137.388L555.562 131.208L556.346 130.7C566.724 147.674 578.347 166.723 588.217 182.912L571.705 187.201L498.877 237.752L502.521 243.01L529.457 224.33L548.828 257.216L559.021 277.049L522.861 283.368C521.616 280.278 518.433 272.437 515.112 264.688C506.118 243.702 504.735 243.472 503.443 243.195L502.797 246.792C502.474 246.746 502.29 246.608 502.244 246.562C504.135 248.314 512.16 266.579 519.171 283.968L494.68 288.257L495.325 291.855L520.278 287.519L523.461 304.908L542.74 319.344L525.444 384.793L528.995 385.715L546.107 321.097L595.782 340.837L594.536 347.848L549.52 442.816L552.841 444.384L598.088 349.001L599.287 342.267L623.409 351.861C603.669 382.487 575.349 432.623 573.735 435.482L576.917 437.281C577.425 436.359 627.976 346.88 641.305 333.135C634.986 344.758 630.189 354.305 627.468 361.362C608.281 391.988 584.251 434.514 582.775 437.143L585.957 438.941C586.28 438.342 606.528 402.504 624.793 372.662C624.47 376.122 624.055 379.673 623.64 383.179C621.795 398.953 620.042 413.804 626.085 422.475C631.481 430.27 655.281 456.791 665.243 467.768H674.883L675.713 467.03C675.344 466.615 639.322 426.996 632.911 417.771C628.667 411.683 630.328 397.661 631.896 384.101C632.403 379.765 632.911 375.291 633.28 371.002C633.695 365.744 640.475 351.953 649.1 336.179C649.93 335.21 650.622 334.472 651.222 333.919C659.754 326.355 691.948 297.297 715.148 275.02C716.486 278.156 717.362 280.555 717.593 282.03C718.515 286.781 712.196 313.625 707.123 335.164C696.561 380.227 691.948 402.135 695.361 408.5C696.468 410.576 699.328 415.28 703.202 421.599L673.73 452.64L676.405 455.177L705.186 424.828C709.66 432.023 715.102 440.786 720.729 449.734V434.191C717.178 428.518 713.857 423.167 711.043 418.601L720.729 408.408V403.058L709.06 415.372C705.924 410.253 703.618 406.378 702.649 404.626C702.326 403.749 701.727 399.552 705.37 380.78C707.723 368.834 711.089 354.259 714.456 339.961L720.775 341.114V337.378L715.333 336.41C717.408 327.554 719.253 319.667 720.775 312.795V264.319C720.452 264.642 720.13 264.919 719.807 265.242C719.253 264.042 718.654 262.797 718.054 261.506C718.977 260.537 719.899 259.661 720.729 258.784V253.526C719.438 254.91 717.962 256.432 716.348 258.046C707.446 239.736 694.577 216.167 688.535 205.189L710.951 187.478L711.643 188.216L711.735 188.308L720.683 195.134V190.522L714.18 185.587L713.811 185.218L720.637 179.822V175.163L718.746 176.639L705.047 159.62L720.637 152.148V148.089L701.265 157.406L674.375 175.394C672.946 172.534 671.516 169.674 670.04 166.815L714.41 135.497L720.637 133.514V122.352L713.211 111.329C715.656 109.945 718.146 108.561 720.637 107.178V102.98C717.501 104.687 714.318 106.486 711.136 108.238L688.028 73.9689L638.353 119.815C627.699 107.685 615.753 95.8774 604.776 85.5458L641.997 62.6688L676.497 18.1599ZM553.856 127.933L546.153 131.254L552.103 123.69C552.887 124.935 553.671 126.226 554.455 127.518L553.856 127.933ZM554.548 120.599L561.005 112.39L597.488 89.9737C599.425 91.8186 601.455 93.7096 603.484 95.6468L557.592 125.488C556.531 123.874 555.562 122.214 554.548 120.599ZM559.483 128.671L584.02 112.712C587.71 116.264 601.824 133.283 610.818 144.353L609.157 177.469L592 181.897C581.161 164.14 569.63 145.183 559.483 128.671ZM574.473 193.059L608.788 184.157L605.421 250.759L586.28 246.885L572.582 249.744L582.129 220.594L572.167 194.627L574.473 193.059ZM576.963 291.486L579.27 285.674L603.438 290.056L602.885 301.264L602.562 303.063L576.963 291.486ZM601.87 306.752L600.394 314.916L573.55 300.157L575.626 294.853L601.87 306.752ZM580.653 282.215L582.775 276.865C591.215 277.464 600.394 278.756 603.945 280.047L603.623 286.32L580.653 282.215ZM593.937 274.328C589.97 273.774 586.004 273.452 583.743 273.267L587.756 250.943L605.237 254.449L604.13 276.265C601.962 275.619 598.733 274.974 593.937 274.328ZM532.501 222.209L569.03 196.841L578.209 220.733L568.431 250.667L551.411 254.218L532.501 222.209ZM553.21 257.631L583.974 251.174L579.961 273.359L562.85 276.357L553.21 257.631ZM544.354 315.931L526.827 302.786L523.922 286.827L559.667 280.601L557.223 296.236L544.354 315.931ZM596.381 337.102L547.537 317.73L560.682 297.62L563.403 280.001L578.578 277.372L568.892 301.91L599.656 318.791L596.381 337.102ZM599.84 338.485L606.482 301.817L607.589 279.678L608.558 279.263C608.419 278.848 608.143 278.433 607.681 278.064L609.019 251.82L609.065 251.543H609.019L609.572 240.335L634.525 244.532L635.125 240.935L609.757 236.691L611.141 209.156C614.6 209.986 621.518 211.093 635.54 213.122L636.416 213.261L663.444 188.585L655.419 257.355L614.415 319.713L609.988 342.636L599.84 338.485ZM611.371 205.374L612.478 183.189L662.476 170.228C663.352 171.888 664.182 173.549 665.012 175.209L664.09 182.912L635.217 209.248C625.485 207.864 614.83 206.158 611.371 205.374ZM713.35 271.33C694.024 289.964 667.688 313.902 654.681 325.617C656.526 322.296 658.417 318.975 660.308 315.7C675.713 301.725 696.653 282.399 711.689 267.686C712.289 268.931 712.842 270.177 713.35 271.33ZM697.483 239.413C702.142 248.314 706.569 256.986 710.029 264.227C697.575 276.403 680.648 292.131 666.304 305.277C667.734 302.786 669.164 300.341 670.501 297.989C686.414 270.454 696.238 253.25 697.345 247.023C697.76 244.901 697.76 242.318 697.483 239.413ZM689.273 245.547C688.351 250.713 675.067 273.636 663.398 293.884C657.264 304.492 651.637 314.271 646.655 323.126C643.565 325.894 641.121 328.061 639.599 329.445C636.693 332.028 631.527 339.177 625.347 348.632L613.493 343.928L617.875 321.051L658.509 259.292L668.287 253.342L674.56 218.565L679.956 208.372C686.783 225.576 690.38 239.274 689.273 245.547ZM701.727 161.418L715.794 178.899L711.228 182.543L695.408 165.662L701.727 161.418ZM692.317 167.737L708.368 184.849L686.644 201.961C686.183 201.084 685.814 200.439 685.537 199.931C682.678 193.013 679.403 185.864 675.944 178.668L692.317 167.737ZM678.158 203.852L671.055 217.32L664.966 251.036L659.478 254.403L668.01 181.298C671.839 189.185 675.252 196.749 678.158 203.852ZM719.392 127.103L711.505 129.64L666.996 161.049C665.474 158.144 663.906 155.238 662.337 152.424C660.677 149.38 658.74 146.29 656.664 143.154C662.752 139.464 684.938 127.011 709.983 113.081L719.392 127.103ZM687.29 79.5498L707.861 110.037C707.492 110.222 707.123 110.452 706.754 110.683C670.501 130.839 658.601 137.665 654.589 140.156C650.484 134.344 645.825 128.44 640.798 122.583L687.29 79.5498ZM606.159 98.3219C624.562 116.172 644.718 137.665 655.096 156.391C656.572 159.066 658.048 161.741 659.478 164.416L612.847 176.501L614.554 143.154L614.093 142.6C614.046 142.508 607.128 134.021 600.209 125.765C596.151 120.876 592.83 117.002 590.431 114.281C589.048 112.712 587.987 111.559 587.157 110.683L606.159 98.3219Z" fill="#234338"/>
<path d="M64.581 187.017L60.9372 181.759L34.0013 200.439L14.6296 167.553L4.43637 147.72L40.5969 141.401C41.8422 144.491 45.0247 152.286 48.3456 160.081C57.3396 181.067 58.7233 181.298 60.0148 181.574L60.6605 177.977C60.9372 178.023 61.1217 178.115 61.1678 178.161C59.2307 176.27 51.2514 158.098 44.2868 140.755L68.7782 136.466L68.1324 132.868L43.1798 137.204L39.9973 119.815L20.764 105.379L38.0602 39.93L34.5087 39.0076L17.397 103.626L-32.2776 83.8854L-31.0323 76.8747L14.0761 -18.0467L10.7552 -19.6149L-34.4916 75.7677L-35.6908 82.5017L-59.8132 72.9081C-40.0725 42.3746 -11.7067 -7.80741 -10.1385 -10.6209L-13.321 -12.4197C-13.8284 -11.4973 -64.4255 77.9817 -77.709 91.7263C-71.3901 80.1033 -66.5933 70.5558 -63.872 63.499C-44.6848 32.8732 -20.6546 -9.65234 -19.1787 -12.2814L-22.3612 -14.0802C-22.684 -13.4806 -42.9321 22.3571 -61.1969 52.1988C-60.874 48.7396 -60.4589 45.1881 -60.0438 41.6827C-58.1989 25.9086 -56.4923 11.057 -62.4883 2.38581C-66.3627 -3.19509 -79.6 -18.3235 -90.4851 -30.5H-101.555C-90.3006 -17.9545 -73.4656 1.04823 -69.2684 7.09037C-65.0251 13.1786 -66.6855 27.2001 -68.2537 40.7603C-68.7611 45.0958 -69.2684 49.5698 -69.6374 53.8131C-70.0525 59.0712 -76.8326 72.862 -85.4576 88.6361C-86.2879 89.6047 -86.9797 90.3427 -87.6254 90.8961C-96.1582 98.4603 -128.352 127.518 -151.506 149.795C-152.844 146.659 -153.72 144.261 -153.997 142.785C-154.919 138.034 -148.6 111.19 -143.527 89.6508C-132.918 44.5885 -128.306 22.68 -131.765 16.315C-132.872 14.2395 -135.732 9.53489 -139.606 3.21602L-110.134 -27.8249L-112.809 -30.3616L-141.543 -0.012598C-146.894 -8.68375 -153.72 -19.5688 -160.5 -30.3616V-14.8643C-155.657 -7.16169 -151.091 0.171894 -147.401 6.1679L-160.5 20.0048V25.309L-145.418 9.39653C-142.281 14.5162 -139.975 18.3905 -139.007 20.1432C-138.684 21.0196 -138.084 25.2168 -141.728 43.9889C-144.034 55.9348 -147.447 70.5097 -150.768 84.8079L-160.5 83.0552V86.7912L-151.644 88.4055C-155.611 105.333 -158.701 118.708 -160.5 128.394V149.242C-159.762 151.179 -158.84 153.439 -157.733 155.93C-158.701 156.852 -159.578 157.775 -160.5 158.651V163.817C-159.116 162.433 -157.686 161.003 -156.118 159.481C-155.565 160.68 -154.965 161.926 -154.366 163.171C-156.672 165.477 -158.701 167.599 -160.454 169.49V174.886C-158.517 172.672 -155.842 169.859 -152.659 166.676C-143.757 184.987 -130.889 208.556 -124.847 219.534L-147.263 237.245L-147.955 236.507L-148.047 236.415L-160.5 226.959V231.572L-150.584 239.09L-150.215 239.459L-160.5 247.576V252.235L-155.196 248.038L-141.497 265.103L-160.5 274.236V278.294L-137.715 267.363L-110.825 249.375C-109.396 252.235 -107.966 255.095 -106.49 257.954L-150.86 289.272L-159.624 292.085L-160.5 290.794V299.05L-159.531 298.727L-149.615 313.394C-153.213 315.424 -156.856 317.453 -160.5 319.482V323.68C-156.303 321.374 -151.967 318.929 -147.586 316.531L-124.432 350.8L-74.8493 304.954C-64.1949 317.084 -52.249 328.892 -41.2717 339.223L-78.493 362.008L-112.993 406.563C-132.227 393.51 -148.785 382.348 -148.969 382.21L-160.5 374.461V382.21L-152.567 387.56C-142.051 394.663 -129.966 402.781 -118.021 410.899L-128.952 418.463L-160.5 466.016V467.63H-153.904L-124.339 423.029L-112.347 414.727C-84.3968 433.683 -58.4756 451.441 -56.3078 453.378C-56.3539 453.332 -56.5384 453.101 -56.7229 452.824L-51.2343 449.55C-51.7877 448.581 -52.249 447.843 -100.955 414.727C-103.169 413.205 -105.429 411.683 -107.643 410.161L-74.1113 366.851L-36.3826 343.697C-31.4013 348.309 -26.7429 352.553 -22.5918 356.335C-20.6085 358.134 -18.7174 359.886 -16.9648 361.501L-52.0645 391.942L-52.249 392.08L-68.5766 416.11L-55.7082 425.75L-53.4943 422.798L-63.5491 415.28L-55.8466 403.934L-48.3285 413.758L-45.4227 411.544L-53.7249 400.751L-49.5277 394.571L-48.2363 393.464L-37.7663 410.899L-34.6299 409.008L-45.4227 391.019L-14.2896 364.037C-11.2455 366.897 -8.93935 369.111 -8.063 370.218C-1.51352 378.566 12.3696 403.011 12.5079 403.288L19.657 399.229C19.0574 398.215 5.31271 373.954 -1.60576 365.144C-3.58905 362.608 -8.98546 357.719 -17.1031 350.293C-20.6546 347.064 -24.7135 343.328 -29.1413 339.269L6.78867 317.176L12.5079 309.935C23.9465 328.476 32.1564 341.622 32.9405 342.175L35.1544 339.223C35.2466 339.269 35.2928 339.315 35.3389 339.362C34.1858 337.886 25.8836 324.602 14.9986 306.845L29.8041 288.073L42.9031 282.399L41.4271 279.032L34.6009 281.984L61.7674 247.484L56.74 243.518L22.2399 287.381L8.03398 293.561L7.24989 294.069C-3.12782 277.095 -14.7509 258.046 -24.6212 241.857L-8.10913 237.568L64.581 187.017ZM31.0033 202.514L-5.52623 227.882L-14.7509 203.944L-4.92664 174.01L12.0928 170.459L31.0033 202.514ZM10.294 167.092L-20.4701 173.549L-16.4574 151.364L0.654266 148.366L10.294 167.092ZM-13.5055 133.237L-15.8117 139.049L-39.9802 134.667L-39.4267 123.459L-39.1039 121.706L-13.5055 133.237ZM-38.3659 117.97L-36.89 109.807L-10.0463 124.52L-12.1218 129.824L-38.3659 117.97ZM-17.1493 142.508L-19.2709 147.858C-27.7115 147.259 -36.89 145.967 -40.4415 144.676L-40.1186 138.403L-17.1493 142.508ZM-30.4327 150.395C-26.4661 150.902 -22.4995 151.271 -20.1934 151.456L-24.2061 173.733L-41.6868 170.228L-40.5798 148.412C-38.4582 149.057 -35.2295 149.749 -30.4327 150.395ZM19.1497 108.746L36.6765 121.891L39.5822 137.85L3.83676 144.076L6.2813 128.44L19.1497 108.746ZM-32.8772 87.6214L15.921 107.039L2.77594 127.103L0.00854492 144.722L-15.166 147.397L-5.4801 122.859L-36.2442 105.978L-32.8772 87.6214ZM-36.3365 86.2377L-42.9782 122.906L-44.0852 145.045L-45.0538 145.46C-44.8693 145.875 -44.6387 146.244 -44.1774 146.659L-45.515 172.903L-45.5611 173.18H-45.515L-46.0685 184.388L-71.0211 180.191L-71.6207 183.788L-46.253 188.078L-47.6367 215.613C-51.0959 214.783 -58.0144 213.676 -72.0358 211.647L-72.9121 211.508L-99.9403 236.184L-91.9149 167.414L-50.9575 105.102L-46.5297 82.1789L-36.3365 86.2377ZM-47.9134 219.349L-49.0665 241.488L-99.064 254.449C-99.9403 252.788 -100.771 251.128 -101.601 249.468L-100.678 241.765L-71.8052 215.429C-61.981 216.858 -51.3265 218.565 -47.9134 219.349ZM-149.892 153.393C-130.566 134.759 -104.23 110.821 -91.223 99.106C-93.068 102.427 -94.959 105.748 -96.8501 109.023C-112.255 122.998 -133.195 142.323 -148.231 157.037C-148.785 155.745 -149.338 154.546 -149.892 153.393ZM-133.979 185.31C-138.638 176.408 -143.065 167.737 -146.525 160.496C-134.071 148.273 -117.144 132.545 -102.8 119.4C-104.23 121.891 -105.66 124.335 -106.997 126.688C-122.91 154.223 -132.734 171.381 -133.841 177.654C-134.256 179.822 -134.256 182.404 -133.979 185.31ZM-125.769 179.176C-124.847 174.01 -111.563 151.087 -99.8942 130.839C-93.7598 120.23 -88.1328 110.452 -83.1515 101.597C-80.0612 98.8293 -77.6167 96.6615 -76.0946 95.2778C-73.1889 92.6949 -68.0231 85.5458 -61.8426 76.0906L-49.9889 80.7952L-54.4168 103.718L-95.0513 165.477L-104.829 171.427L-111.102 206.204L-116.499 216.397C-123.325 199.101 -126.876 185.402 -125.769 179.176ZM-138.223 263.304L-152.29 245.778L-147.724 242.18L-131.904 259.061L-138.223 263.304ZM-128.813 256.986L-144.864 239.874L-123.14 222.762C-122.679 223.639 -122.31 224.284 -122.033 224.792C-119.174 231.71 -115.945 238.859 -112.44 246.054L-128.813 256.986ZM-114.654 220.871L-107.551 207.403L-101.462 173.687L-95.9737 170.32L-104.507 243.425C-108.335 235.538 -111.748 227.928 -114.654 220.871ZM-155.888 297.62L-147.955 295.083L-103.446 263.673C-101.924 266.579 -100.355 269.485 -98.7872 272.298C-97.1268 275.343 -95.1896 278.433 -93.1141 281.569C-99.2023 285.259 -121.388 297.712 -146.432 311.642L-155.888 297.62ZM-123.832 345.173L-144.357 314.686C-143.988 314.455 -143.619 314.271 -143.204 314.04C-106.997 293.884 -95.0513 287.058 -91.0385 284.567C-86.9336 290.379 -82.2751 296.283 -77.2477 302.14L-123.832 345.173ZM-42.6554 326.401C-61.1046 308.551 -81.2604 287.058 -91.592 268.332C-93.068 265.657 -94.5439 262.982 -95.9737 260.306L-49.3893 248.222L-51.0959 281.615L-50.6347 282.169C-50.5885 282.261 -43.7162 290.748 -36.7516 299.05C-32.6928 303.939 -29.3719 307.813 -26.9274 310.535C-25.5437 312.103 -24.4828 313.256 -23.6526 314.132L-42.6554 326.401ZM9.60216 296.79L17.3047 293.469L11.3087 301.033C10.5246 299.788 9.74054 298.496 8.95644 297.205L9.60216 296.79ZM8.95644 304.077L2.49919 312.287L-33.9381 334.703C-35.8753 332.858 -37.9047 330.967 -39.9341 329.03L5.95844 299.188C6.92702 300.849 7.94173 302.509 8.95644 304.077ZM4.02127 296.052L-20.5163 312.01C-24.2061 308.459 -38.3198 291.44 -47.3138 280.37L-45.6534 247.254L-28.4955 242.78C-17.6566 260.583 -6.12582 279.54 4.02127 296.052ZM-11.0149 231.618L-45.3305 240.52L-41.9635 173.918L-22.8224 177.792L-9.12383 174.933L-18.6713 204.082L-8.70872 230.05L-11.0149 231.618Z" fill="#234338"/>
</g>
<defs>
<clipPath id="clip0_155_2170">
<rect x="0.5" y="0.5" width="559.5" height="435" rx="8" fill="white"/>
</clipPath>
</defs>
</svg>
